<svg width="840" height="244" viewBox="0 0 840 244" fill="none" xmlns="http://www.w3.org/2000/svg">
<rect x="339.05" y="44.05" width="7.9" height="13.9" fill="url(#paint0_linear_795_3)" stroke="black" stroke-width="0.1"/>
<rect x="364.05" y="44.05" width="7.9" height="13.9" fill="url(#paint1_linear_795_3)" stroke="black" stroke-width="0.1"/>
<rect x="414.05" y="44.05" width="7.9" height="13.9" fill="url(#paint2_linear_795_3)" stroke="black" stroke-width="0.1"/>
<rect x="389.05" y="44.05" width="7.9" height="13.9" fill="url(#paint3_linear_795_3)" stroke="black" stroke-width="0.1"/>
<rect x="439.05" y="44.05" width="7.9" height="13.9" fill="url(#paint4_linear_795_3)" stroke="black" stroke-width="0.1"/>
<rect x="464.05" y="44.05" width="7.9" height="13.9" fill="url(#paint5_linear_795_3)" stroke="black" stroke-width="0.1"/>
<rect x="514.05" y="44.05" width="7.9" height="13.9" fill="url(#paint6_linear_795_3)" stroke="black" stroke-width="0.1"/>
<rect x="489.05" y="44.05" width="7.9" height="13.9" fill="url(#paint7_linear_795_3)" stroke="black" stroke-width="0.1"/>
<rect x="339.05" y="136.05" width="7.9" height="13.9" fill="url(#paint8_linear_795_3)" stroke="black" stroke-width="0.1"/>
<rect x="364.05" y="136.05" width="7.9" height="13.9" fill="url(#paint9_linear_795_3)" stroke="black" stroke-width="0.1"/>
<rect x="414.05" y="136.05" width="7.9" height="13.9" fill="url(#paint10_linear_795_3)" stroke="black" stroke-width="0.1"/>
<rect x="389.05" y="136.05" width="7.9" height="13.9" fill="url(#paint11_linear_795_3)" stroke="black" stroke-width="0.1"/>
<rect x="439.05" y="136.05" width="7.9" height="13.9" fill="url(#paint12_linear_795_3)" stroke="black" stroke-width="0.1"/>
<rect x="464.05" y="136.05" width="7.9" height="13.9" fill="url(#paint13_linear_795_3)" stroke="black" stroke-width="0.1"/>
<rect x="514.05" y="136.05" width="7.9" height="13.9" fill="url(#paint14_linear_795_3)" stroke="black" stroke-width="0.1"/>
<rect x="489.05" y="136.05" width="7.9" height="13.9" fill="url(#paint15_linear_795_3)" stroke="black" stroke-width="0.1"/>
<circle cx="545" cy="21" r="5" fill="url(#paint16_radial_795_3)" stroke="black"/>
<path d="M518 26V44" stroke="black"/>
<path d="M524 21H540" stroke="black"/>
<path d="M524 21C519.2 21 518 24.3333 518 26" stroke="black"/>
<path d="M493 44V21" stroke="black"/>
<path d="M468 44V20" stroke="black"/>
<path d="M480 16V6" stroke="black"/>
<path d="M472 16H488" stroke="black"/>
<path d="M488 16C492 16 493 19.3333 493 21M472 16C468.8 16 468 18.6667 468 20" stroke="black"/>
<path d="M443 44V6" stroke="black"/>
<path d="M397.5 19C397.5 21.4853 395.485 23.5 393 23.5C390.515 23.5 388.5 21.4853 388.5 19C388.5 16.5147 390.515 14.5 393 14.5C395.485 14.5 397.5 16.5147 397.5 19Z" fill="url(#paint17_radial_795_3)" stroke="black"/>
<path d="M393 23V44" stroke="black"/>
<path d="M368 12V44" stroke="black"/>
<path d="M368 12C368 8.4 366 7.5 365 7.5" stroke="black"/>
<line x1="365" y1="7.5" x2="330" y2="7.5" stroke="black"/>
<path d="M343 30V44" stroke="black"/>
<path d="M314 5V19" stroke="black"/>
<path d="M336 22L317 22" stroke="black"/>
<path d="M336 22C341.6 22 343 27.3333 343 30" stroke="black"/>
<path d="M317 22C314.6 22 314 20 314 19" stroke="black"/>
<path d="M518 150V166" stroke="black"/>
<path d="M528 176L741 176" stroke="black"/>
<path d="M751 244L751 185" stroke="black"/>
<path d="M741 176C749 176 751 182 751 185" stroke="black"/>
<path d="M518 166C518 174 524.667 176 528 176" stroke="black"/>
<path d="M493 150V220" stroke="black"/>
<path d="M660 226L499 226" stroke="black"/>
<path d="M666 232V244" stroke="black"/>
<path d="M493 220C493 224.8 497 226 499 226" stroke="black"/>
<path d="M660 226C664.8 226 666 230 666 232" stroke="black"/>
<circle cx="468" cy="176" r="4.5" fill="url(#paint18_radial_795_3)" stroke="black"/>
<path d="M468 150V171" stroke="black"/>
<circle cx="443" cy="198" r="4.5" fill="url(#paint19_radial_795_3)" stroke="black"/>
<path d="M443 150V193" stroke="black"/>
<path d="M418 150V244" stroke="black"/>
<circle cx="393" cy="230" r="4.5" fill="url(#paint20_radial_795_3)" stroke="black"/>
<path d="M393 150V225" stroke="black"/>
<path d="M368 150V205" stroke="black"/>
<path d="M361 212H217" stroke="black"/>
<path d="M368 205C368 210.6 363.333 212 361 212" stroke="black"/>
<path d="M216.5 212C211.3 212 210 216 210 218" stroke="black"/>
<path d="M210 218V244" stroke="black"/>
<path d="M343 150V185" stroke="black"/>
<path d="M336 193L98.0002 192" stroke="black"/>
<path d="M89 244L89 200" stroke="black"/>
<path d="M343 185C343 191.4 338 193 335.5 193" stroke="black"/>
<path d="M98 192C90.8 192 89 197.667 89 200" stroke="black"/>
<g filter="url(#filter0_bf_795_3)">
<rect x="318.5" y="58" width="221" height="78" rx="9" fill="url(#paint21_radial_795_3)"/>
<rect x="319.5" y="59" width="219" height="76" rx="8" stroke="#FFF1F1" stroke-opacity="0.26" stroke-width="2"/>
</g>
<g filter="url(#filter1_d_795_3)">
<mask id="path-66-outside-1_795_3" maskUnits="userSpaceOnUse" x="366" y="82" width="127" height="31" fill="black">
<rect fill="white" x="366" y="82" width="127" height="31"/>
<path d="M383.964 102.88C383.964 104.608 383.388 105.899 382.236 106.752C381.682 107.157 381.106 107.477 380.508 107.712C379.932 107.925 379.367 108.032 378.812 108.032H371.836C371.282 108.032 370.706 107.925 370.108 107.712C369.532 107.477 368.967 107.157 368.412 106.752C367.858 106.325 367.431 105.803 367.132 105.184C366.834 104.544 366.684 103.776 366.684 102.88V87.68C366.684 86.8267 366.834 86.08 367.132 85.44C367.431 84.7787 367.858 84.2453 368.412 83.84H368.38C368.935 83.4773 369.511 83.1787 370.108 82.944C370.706 82.7093 371.282 82.592 371.836 82.592H378.812C379.367 82.592 379.943 82.7093 380.54 82.944C381.138 83.1787 381.714 83.4773 382.268 83.84H382.236C382.791 84.2453 383.218 84.7787 383.516 85.44C383.815 86.08 383.964 86.8267 383.964 87.68V89.888C383.964 90.912 383.324 91.424 382.044 91.424C380.786 91.424 380.156 90.912 380.156 89.888V87.968C380.156 87.4347 379.996 86.944 379.676 86.496C379.356 86.048 378.802 85.824 378.012 85.824H372.636C371.847 85.824 371.292 86.048 370.972 86.496C370.652 86.944 370.492 87.4347 370.492 87.968V102.624C370.492 103.179 370.652 103.68 370.972 104.128C371.292 104.576 371.847 104.8 372.636 104.8H378.012C378.802 104.8 379.356 104.576 379.676 104.128C379.996 103.68 380.156 103.179 380.156 102.624V100.768C380.156 99.7653 380.786 99.264 382.044 99.264C383.324 99.264 383.964 99.7653 383.964 100.768V102.88ZM391.919 106.656C391.919 107.68 391.333 108.192 390.159 108.192C388.965 108.192 388.367 107.68 388.367 106.656V90.144C388.367 89.12 388.965 88.608 390.159 88.608C391.333 88.608 391.919 89.12 391.919 90.144V106.656ZM392.591 84.576C392.591 85.2587 392.357 85.8347 391.887 86.304C391.418 86.7733 390.842 87.008 390.159 87.008C389.477 87.008 388.89 86.7733 388.399 86.304C387.93 85.8347 387.695 85.2587 387.695 84.576C387.695 83.872 387.93 83.2853 388.399 82.816C388.89 82.3467 389.477 82.112 390.159 82.112C390.842 82.112 391.418 82.3467 391.887 82.816C392.357 83.2853 392.591 83.872 392.591 84.576ZM399.822 106.656C399.822 107.68 399.235 108.192 398.062 108.192C396.846 108.192 396.238 107.68 396.238 106.656V93.408C396.238 91.6587 396.76 90.4427 397.806 89.76C398.851 89.0773 400.056 88.736 401.422 88.736H405.07C405.859 88.736 406.254 89.2373 406.254 90.24C406.296 91.2427 405.902 91.744 405.07 91.744H401.678C400.91 91.744 400.408 91.8933 400.174 92.192C399.939 92.4907 399.822 92.9067 399.822 93.44V106.656ZM424.352 102.912C424.352 104.661 423.776 105.952 422.624 106.784C421.493 107.595 420.362 108 419.232 108H413.856C412.725 108 411.626 107.595 410.56 106.784C410.048 106.357 409.653 105.824 409.376 105.184C409.098 104.523 408.96 103.765 408.96 102.912V93.792C408.96 92.064 409.493 90.784 410.56 89.952C411.093 89.568 411.637 89.2693 412.192 89.056C412.768 88.8213 413.322 88.704 413.856 88.704H419.232C419.744 88.704 420.309 88.8107 420.928 89.024C421.546 89.216 422.122 89.4827 422.656 89.824C423.168 90.1867 423.573 90.688 423.872 91.328C424.192 91.968 424.352 92.7253 424.352 93.6V95.2C424.352 96.224 423.765 96.736 422.592 96.736C421.418 96.736 420.832 96.224 420.832 95.2V93.824C420.832 93.2907 420.661 92.8107 420.32 92.384C420 91.936 419.445 91.712 418.656 91.712H414.656C413.866 91.712 413.301 91.936 412.96 92.384C412.64 92.8107 412.48 93.2907 412.48 93.824V102.88C412.48 103.392 412.64 103.872 412.96 104.32C413.301 104.768 413.866 104.992 414.656 104.992H418.656C419.445 104.992 420 104.768 420.32 104.32C420.661 103.872 420.832 103.392 420.832 102.88V101.408C420.832 100.405 421.418 99.904 422.592 99.904C423.765 99.904 424.352 100.405 424.352 101.408V102.912ZM443.758 102.912C443.758 103.765 443.608 104.523 443.31 105.184C443.011 105.845 442.584 106.379 442.03 106.784H442.062C441.528 107.147 440.963 107.445 440.366 107.68C439.768 107.893 439.192 108 438.638 108H433.486C432.952 108 432.376 107.893 431.758 107.68C431.16 107.445 430.595 107.147 430.062 106.784H430.094C429.539 106.379 429.112 105.845 428.814 105.184C428.515 104.523 428.366 103.765 428.366 102.912V90.08C428.366 89.056 428.952 88.544 430.126 88.544C431.299 88.544 431.886 89.056 431.886 90.08V102.656C431.886 103.253 432.035 103.776 432.334 104.224C432.611 104.736 433.187 104.992 434.062 104.992H438.062C438.915 104.992 439.48 104.736 439.758 104.224L439.726 104.256C440.067 103.744 440.238 103.211 440.238 102.656V90.08C440.238 89.056 440.824 88.544 441.998 88.544C443.171 88.544 443.758 89.056 443.758 90.08V102.912ZM451.388 106.656C451.388 107.68 450.801 108.192 449.628 108.192C448.433 108.192 447.836 107.68 447.836 106.656V90.144C447.836 89.12 448.433 88.608 449.628 88.608C450.801 88.608 451.388 89.12 451.388 90.144V106.656ZM452.06 84.576C452.06 85.2587 451.825 85.8347 451.356 86.304C450.887 86.7733 450.311 87.008 449.628 87.008C448.945 87.008 448.359 86.7733 447.868 86.304C447.399 85.8347 447.164 85.2587 447.164 84.576C447.164 83.872 447.399 83.2853 447.868 82.816C448.359 82.3467 448.945 82.112 449.628 82.112C450.311 82.112 450.887 82.3467 451.356 82.816C451.825 83.2853 452.06 83.872 452.06 84.576ZM460.027 91.744V103.392C460.027 103.947 460.144 104.373 460.379 104.672C460.613 104.971 461.115 105.12 461.883 105.12H462.715C463.547 105.12 463.941 105.611 463.899 106.592C463.899 107.595 463.504 108.096 462.715 108.096H461.659C460.976 108.096 460.336 108.011 459.739 107.84C459.141 107.648 458.565 107.381 458.011 107.04V107.072C456.965 106.389 456.443 105.173 456.443 103.424V91.744H455.195C454.427 91.744 454.021 91.2427 453.979 90.24C453.979 89.2373 454.384 88.736 455.195 88.736H456.443V85.312C456.443 84.288 457.051 83.776 458.266 83.776C459.44 83.776 460.027 84.288 460.027 85.312V88.736H462.683C463.515 88.736 463.909 89.2373 463.867 90.24C463.867 91.2427 463.472 91.744 462.683 91.744H460.027ZM470.134 106.656C470.134 107.68 469.548 108.192 468.374 108.192C467.158 108.192 466.55 107.68 466.55 106.656V93.408C466.55 91.6587 467.073 90.4427 468.118 89.76C469.164 89.0773 470.369 88.736 471.734 88.736H475.382C476.172 88.736 476.566 89.2373 476.566 90.24C476.609 91.2427 476.214 91.744 475.382 91.744H471.99C471.222 91.744 470.721 91.8933 470.486 92.192C470.252 92.4907 470.134 92.9067 470.134 93.44V106.656ZM480.296 112.48C479.549 112.48 479.155 111.979 479.112 110.976C479.112 109.973 479.507 109.472 480.296 109.472H481.704C482.451 109.472 482.941 109.248 483.176 108.8L483.624 107.616L483.784 107.104L477.544 90.752V90.784C477.373 90.272 477.405 89.8347 477.64 89.472C477.896 89.1093 478.28 88.8427 478.792 88.672C479.176 88.5653 479.485 88.512 479.72 88.512C480.339 88.512 480.723 88.8747 480.872 89.6L483.4 95.904L485.544 101.152L488.968 89.664C489.16 88.896 489.608 88.512 490.312 88.512C490.483 88.512 490.76 88.5653 491.144 88.672C491.656 88.8213 492.019 89.0667 492.232 89.408C492.467 89.7493 492.52 90.1547 492.392 90.624C491.432 93.888 490.451 97.1733 489.448 100.48C488.467 103.787 487.496 107.061 486.536 110.304C486.429 110.539 486.259 110.773 486.024 111.008C485.811 111.264 485.523 111.499 485.16 111.712C484.797 111.947 484.349 112.128 483.816 112.256C483.283 112.405 482.664 112.48 481.96 112.48H480.296Z"/>
</mask>
<path d="M383.964 102.88C383.964 104.608 383.388 105.899 382.236 106.752C381.682 107.157 381.106 107.477 380.508 107.712C379.932 107.925 379.367 108.032 378.812 108.032H371.836C371.282 108.032 370.706 107.925 370.108 107.712C369.532 107.477 368.967 107.157 368.412 106.752C367.858 106.325 367.431 105.803 367.132 105.184C366.834 104.544 366.684 103.776 366.684 102.88V87.68C366.684 86.8267 366.834 86.08 367.132 85.44C367.431 84.7787 367.858 84.2453 368.412 83.84H368.38C368.935 83.4773 369.511 83.1787 370.108 82.944C370.706 82.7093 371.282 82.592 371.836 82.592H378.812C379.367 82.592 379.943 82.7093 380.54 82.944C381.138 83.1787 381.714 83.4773 382.268 83.84H382.236C382.791 84.2453 383.218 84.7787 383.516 85.44C383.815 86.08 383.964 86.8267 383.964 87.68V89.888C383.964 90.912 383.324 91.424 382.044 91.424C380.786 91.424 380.156 90.912 380.156 89.888V87.968C380.156 87.4347 379.996 86.944 379.676 86.496C379.356 86.048 378.802 85.824 378.012 85.824H372.636C371.847 85.824 371.292 86.048 370.972 86.496C370.652 86.944 370.492 87.4347 370.492 87.968V102.624C370.492 103.179 370.652 103.68 370.972 104.128C371.292 104.576 371.847 104.8 372.636 104.8H378.012C378.802 104.8 379.356 104.576 379.676 104.128C379.996 103.68 380.156 103.179 380.156 102.624V100.768C380.156 99.7653 380.786 99.264 382.044 99.264C383.324 99.264 383.964 99.7653 383.964 100.768V102.88ZM391.919 106.656C391.919 107.68 391.333 108.192 390.159 108.192C388.965 108.192 388.367 107.68 388.367 106.656V90.144C388.367 89.12 388.965 88.608 390.159 88.608C391.333 88.608 391.919 89.12 391.919 90.144V106.656ZM392.591 84.576C392.591 85.2587 392.357 85.8347 391.887 86.304C391.418 86.7733 390.842 87.008 390.159 87.008C389.477 87.008 388.89 86.7733 388.399 86.304C387.93 85.8347 387.695 85.2587 387.695 84.576C387.695 83.872 387.93 83.2853 388.399 82.816C388.89 82.3467 389.477 82.112 390.159 82.112C390.842 82.112 391.418 82.3467 391.887 82.816C392.357 83.2853 392.591 83.872 392.591 84.576ZM399.822 106.656C399.822 107.68 399.235 108.192 398.062 108.192C396.846 108.192 396.238 107.68 396.238 106.656V93.408C396.238 91.6587 396.76 90.4427 397.806 89.76C398.851 89.0773 400.056 88.736 401.422 88.736H405.07C405.859 88.736 406.254 89.2373 406.254 90.24C406.296 91.2427 405.902 91.744 405.07 91.744H401.678C400.91 91.744 400.408 91.8933 400.174 92.192C399.939 92.4907 399.822 92.9067 399.822 93.44V106.656ZM424.352 102.912C424.352 104.661 423.776 105.952 422.624 106.784C421.493 107.595 420.362 108 419.232 108H413.856C412.725 108 411.626 107.595 410.56 106.784C410.048 106.357 409.653 105.824 409.376 105.184C409.098 104.523 408.96 103.765 408.96 102.912V93.792C408.96 92.064 409.493 90.784 410.56 89.952C411.093 89.568 411.637 89.2693 412.192 89.056C412.768 88.8213 413.322 88.704 413.856 88.704H419.232C419.744 88.704 420.309 88.8107 420.928 89.024C421.546 89.216 422.122 89.4827 422.656 89.824C423.168 90.1867 423.573 90.688 423.872 91.328C424.192 91.968 424.352 92.7253 424.352 93.6V95.2C424.352 96.224 423.765 96.736 422.592 96.736C421.418 96.736 420.832 96.224 420.832 95.2V93.824C420.832 93.2907 420.661 92.8107 420.32 92.384C420 91.936 419.445 91.712 418.656 91.712H414.656C413.866 91.712 413.301 91.936 412.96 92.384C412.64 92.8107 412.48 93.2907 412.48 93.824V102.88C412.48 103.392 412.64 103.872 412.96 104.32C413.301 104.768 413.866 104.992 414.656 104.992H418.656C419.445 104.992 420 104.768 420.32 104.32C420.661 103.872 420.832 103.392 420.832 102.88V101.408C420.832 100.405 421.418 99.904 422.592 99.904C423.765 99.904 424.352 100.405 424.352 101.408V102.912ZM443.758 102.912C443.758 103.765 443.608 104.523 443.31 105.184C443.011 105.845 442.584 106.379 442.03 106.784H442.062C441.528 107.147 440.963 107.445 440.366 107.68C439.768 107.893 439.192 108 438.638 108H433.486C432.952 108 432.376 107.893 431.758 107.68C431.16 107.445 430.595 107.147 430.062 106.784H430.094C429.539 106.379 429.112 105.845 428.814 105.184C428.515 104.523 428.366 103.765 428.366 102.912V90.08C428.366 89.056 428.952 88.544 430.126 88.544C431.299 88.544 431.886 89.056 431.886 90.08V102.656C431.886 103.253 432.035 103.776 432.334 104.224C432.611 104.736 433.187 104.992 434.062 104.992H438.062C438.915 104.992 439.48 104.736 439.758 104.224L439.726 104.256C440.067 103.744 440.238 103.211 440.238 102.656V90.08C440.238 89.056 440.824 88.544 441.998 88.544C443.171 88.544 443.758 89.056 443.758 90.08V102.912ZM451.388 106.656C451.388 107.68 450.801 108.192 449.628 108.192C448.433 108.192 447.836 107.68 447.836 106.656V90.144C447.836 89.12 448.433 88.608 449.628 88.608C450.801 88.608 451.388 89.12 451.388 90.144V106.656ZM452.06 84.576C452.06 85.2587 451.825 85.8347 451.356 86.304C450.887 86.7733 450.311 87.008 449.628 87.008C448.945 87.008 448.359 86.7733 447.868 86.304C447.399 85.8347 447.164 85.2587 447.164 84.576C447.164 83.872 447.399 83.2853 447.868 82.816C448.359 82.3467 448.945 82.112 449.628 82.112C450.311 82.112 450.887 82.3467 451.356 82.816C451.825 83.2853 452.06 83.872 452.06 84.576ZM460.027 91.744V103.392C460.027 103.947 460.144 104.373 460.379 104.672C460.613 104.971 461.115 105.12 461.883 105.12H462.715C463.547 105.12 463.941 105.611 463.899 106.592C463.899 107.595 463.504 108.096 462.715 108.096H461.659C460.976 108.096 460.336 108.011 459.739 107.84C459.141 107.648 458.565 107.381 458.011 107.04V107.072C456.965 106.389 456.443 105.173 456.443 103.424V91.744H455.195C454.427 91.744 454.021 91.2427 453.979 90.24C453.979 89.2373 454.384 88.736 455.195 88.736H456.443V85.312C456.443 84.288 457.051 83.776 458.266 83.776C459.44 83.776 460.027 84.288 460.027 85.312V88.736H462.683C463.515 88.736 463.909 89.2373 463.867 90.24C463.867 91.2427 463.472 91.744 462.683 91.744H460.027ZM470.134 106.656C470.134 107.68 469.548 108.192 468.374 108.192C467.158 108.192 466.55 107.68 466.55 106.656V93.408C466.55 91.6587 467.073 90.4427 468.118 89.76C469.164 89.0773 470.369 88.736 471.734 88.736H475.382C476.172 88.736 476.566 89.2373 476.566 90.24C476.609 91.2427 476.214 91.744 475.382 91.744H471.99C471.222 91.744 470.721 91.8933 470.486 92.192C470.252 92.4907 470.134 92.9067 470.134 93.44V106.656ZM480.296 112.48C479.549 112.48 479.155 111.979 479.112 110.976C479.112 109.973 479.507 109.472 480.296 109.472H481.704C482.451 109.472 482.941 109.248 483.176 108.8L483.624 107.616L483.784 107.104L477.544 90.752V90.784C477.373 90.272 477.405 89.8347 477.64 89.472C477.896 89.1093 478.28 88.8427 478.792 88.672C479.176 88.5653 479.485 88.512 479.72 88.512C480.339 88.512 480.723 88.8747 480.872 89.6L483.4 95.904L485.544 101.152L488.968 89.664C489.16 88.896 489.608 88.512 490.312 88.512C490.483 88.512 490.76 88.5653 491.144 88.672C491.656 88.8213 492.019 89.0667 492.232 89.408C492.467 89.7493 492.52 90.1547 492.392 90.624C491.432 93.888 490.451 97.1733 489.448 100.48C488.467 103.787 487.496 107.061 486.536 110.304C486.429 110.539 486.259 110.773 486.024 111.008C485.811 111.264 485.523 111.499 485.16 111.712C484.797 111.947 484.349 112.128 483.816 112.256C483.283 112.405 482.664 112.48 481.96 112.48H480.296Z" fill="url(#paint22_linear_795_3)"/>
<path d="M382.236 106.752L382.295 106.833L382.296 106.832L382.236 106.752ZM380.508 107.712L380.543 107.806L380.545 107.805L380.508 107.712ZM370.108 107.712L370.07 107.805L370.075 107.806L370.108 107.712ZM368.412 106.752L368.351 106.831L368.353 106.833L368.412 106.752ZM367.132 105.184L367.042 105.226L367.042 105.227L367.132 105.184ZM367.132 85.44L367.223 85.4823L367.223 85.4812L367.132 85.44ZM368.412 83.84L368.471 83.9207L368.719 83.74H368.412V83.84ZM368.38 83.84L368.326 83.7563L368.045 83.94H368.38V83.84ZM370.108 82.944L370.072 82.8509L370.072 82.8509L370.108 82.944ZM380.54 82.944L380.577 82.8509L380.577 82.8509L380.54 82.944ZM382.268 83.84V83.94H382.604L382.323 83.7563L382.268 83.84ZM382.236 83.84V83.74H381.93L382.177 83.9207L382.236 83.84ZM383.516 85.44L383.425 85.4812L383.426 85.4823L383.516 85.44ZM379.676 86.496L379.758 86.4379L379.758 86.4379L379.676 86.496ZM370.972 86.496L370.891 86.4379L370.891 86.4379L370.972 86.496ZM370.972 104.128L371.054 104.07L371.054 104.07L370.972 104.128ZM379.676 104.128L379.595 104.07L379.595 104.07L379.676 104.128ZM383.864 102.88C383.864 104.584 383.298 105.841 382.177 106.672L382.296 106.832C383.479 105.956 384.064 104.632 384.064 102.88H383.864ZM382.177 106.671C381.629 107.072 381.061 107.388 380.472 107.619L380.545 107.805C381.151 107.567 381.734 107.243 382.295 106.833L382.177 106.671ZM380.474 107.618C379.907 107.828 379.354 107.932 378.812 107.932V108.132C379.38 108.132 379.957 108.023 380.543 107.806L380.474 107.618ZM378.812 107.932H371.836V108.132H378.812V107.932ZM371.836 107.932C371.295 107.932 370.73 107.828 370.142 107.618L370.075 107.806C370.681 108.023 371.269 108.132 371.836 108.132V107.932ZM370.146 107.619C369.578 107.388 369.02 107.072 368.471 106.671L368.353 106.833C368.914 107.242 369.486 107.567 370.071 107.805L370.146 107.619ZM368.473 106.673C367.931 106.255 367.514 105.745 367.222 105.141L367.042 105.227C367.348 105.86 367.785 106.395 368.351 106.831L368.473 106.673ZM367.223 105.142C366.932 104.518 366.784 103.765 366.784 102.88H366.584C366.584 103.787 366.735 104.57 367.042 105.226L367.223 105.142ZM366.784 102.88V87.68H366.584V102.88H366.784ZM366.784 87.68C366.784 86.8383 366.932 86.1066 367.223 85.4823L367.042 85.3977C366.736 86.0534 366.584 86.815 366.584 87.68H366.784ZM367.223 85.4812C367.515 84.8347 367.931 84.3153 368.471 83.9207L368.353 83.7593C367.784 84.1754 367.346 84.7227 367.041 85.3988L367.223 85.4812ZM368.412 83.74H368.38V83.94H368.412V83.74ZM368.435 83.9237C368.984 83.5646 369.554 83.2692 370.145 83.0371L370.072 82.8509C369.468 83.0882 368.886 83.39 368.326 83.7563L368.435 83.9237ZM370.145 83.0371C370.732 82.8063 371.296 82.692 371.836 82.692V82.492C371.267 82.492 370.679 82.6124 370.072 82.8509L370.145 83.0371ZM371.836 82.692H378.812V82.492H371.836V82.692ZM378.812 82.692C379.353 82.692 379.916 82.8063 380.504 83.0371L380.577 82.8509C379.97 82.6124 379.381 82.492 378.812 82.492V82.692ZM380.504 83.0371C381.094 83.2692 381.664 83.5646 382.214 83.9237L382.323 83.7563C381.763 83.39 381.181 83.0882 380.577 82.8509L380.504 83.0371ZM382.268 83.74H382.236V83.94H382.268V83.74ZM382.177 83.9207C382.717 84.3153 383.133 84.8347 383.425 85.4812L383.607 85.3988C383.302 84.7227 382.865 84.1754 382.295 83.7593L382.177 83.9207ZM383.426 85.4823C383.717 86.1066 383.864 86.8383 383.864 87.68H384.064C384.064 86.815 383.913 86.0534 383.607 85.3977L383.426 85.4823ZM383.864 87.68V89.888H384.064V87.68H383.864ZM383.864 89.888C383.864 90.3779 383.712 90.7295 383.422 90.9619C383.127 91.1977 382.674 91.324 382.044 91.324V91.524C382.695 91.524 383.201 91.3943 383.547 91.1181C383.896 90.8385 384.064 90.4221 384.064 89.888H383.864ZM382.044 91.324C381.426 91.324 380.981 91.1978 380.691 90.9624C380.406 90.7302 380.256 90.3785 380.256 89.888H380.056C380.056 90.4215 380.221 90.8377 380.565 91.1176C380.905 91.3942 381.404 91.524 382.044 91.524V91.324ZM380.256 89.888V87.968H380.056V89.888H380.256ZM380.256 87.968C380.256 87.4131 380.089 86.9023 379.758 86.4379L379.595 86.5541C379.903 86.9857 380.056 87.4562 380.056 87.968H380.256ZM379.758 86.4379C379.412 85.9534 378.819 85.724 378.012 85.724V85.924C378.784 85.924 379.301 86.1426 379.595 86.5541L379.758 86.4379ZM378.012 85.724H372.636V85.924H378.012V85.724ZM372.636 85.724C371.83 85.724 371.237 85.9534 370.891 86.4379L371.054 86.5541C371.348 86.1426 371.864 85.924 372.636 85.924V85.724ZM370.891 86.4379C370.559 86.9023 370.392 87.4131 370.392 87.968H370.592C370.592 87.4562 370.745 86.9857 371.054 86.5541L370.891 86.4379ZM370.392 87.968V102.624H370.592V87.968H370.392ZM370.392 102.624C370.392 103.199 370.559 103.721 370.891 104.186L371.054 104.07C370.746 103.639 370.592 103.158 370.592 102.624H370.392ZM370.891 104.186C371.237 104.671 371.83 104.9 372.636 104.9V104.7C371.864 104.7 371.348 104.481 371.054 104.07L370.891 104.186ZM372.636 104.9H378.012V104.7H372.636V104.9ZM378.012 104.9C378.819 104.9 379.412 104.671 379.758 104.186L379.595 104.07C379.301 104.481 378.784 104.7 378.012 104.7V104.9ZM379.758 104.186C380.09 103.721 380.256 103.199 380.256 102.624H380.056C380.056 103.158 379.903 103.639 379.595 104.07L379.758 104.186ZM380.256 102.624V100.768H380.056V102.624H380.256ZM380.256 100.768C380.256 100.289 380.405 99.9453 380.691 99.7182C380.98 99.4877 381.426 99.364 382.044 99.364V99.164C381.404 99.164 380.906 99.291 380.566 99.5618C380.222 99.836 380.056 100.244 380.056 100.768H380.256ZM382.044 99.364C382.674 99.364 383.128 99.4878 383.423 99.7187C383.713 99.946 383.864 100.289 383.864 100.768H384.064C384.064 100.244 383.896 99.8353 383.546 99.5613C383.201 99.2909 382.695 99.164 382.044 99.164V99.364ZM383.864 100.768V102.88H384.064V100.768H383.864ZM388.399 86.304L388.329 86.3747L388.33 86.3763L388.399 86.304ZM388.399 82.816L388.33 82.7437L388.329 82.7453L388.399 82.816ZM391.887 82.816L391.958 82.7453L391.958 82.7453L391.887 82.816ZM391.819 106.656C391.819 107.149 391.679 107.501 391.413 107.733C391.146 107.966 390.734 108.092 390.159 108.092V108.292C390.758 108.292 391.226 108.162 391.545 107.883C391.866 107.603 392.019 107.187 392.019 106.656H391.819ZM390.159 108.092C389.574 108.092 389.154 107.966 388.88 107.732C388.61 107.5 388.467 107.148 388.467 106.656H388.267C388.267 107.188 388.423 107.604 388.75 107.884C389.074 108.162 389.55 108.292 390.159 108.292V108.092ZM388.467 106.656V90.144H388.267V106.656H388.467ZM388.467 90.144C388.467 89.6518 388.61 89.2996 388.88 89.0679C389.154 88.8338 389.574 88.708 390.159 88.708V88.508C389.55 88.508 389.074 88.6382 388.75 88.9161C388.423 89.1964 388.267 89.6122 388.267 90.144H388.467ZM390.159 88.708C390.734 88.708 391.146 88.8336 391.413 89.0673C391.679 89.2988 391.819 89.6512 391.819 90.144H392.019C392.019 89.6128 391.866 89.1972 391.545 88.9167C391.226 88.6384 390.758 88.508 390.159 88.508V88.708ZM391.819 90.144V106.656H392.019V90.144H391.819ZM392.491 84.576C392.491 85.233 392.267 85.7833 391.817 86.2333L391.958 86.3747C392.447 85.886 392.691 85.2843 392.691 84.576H392.491ZM391.817 86.2333C391.367 86.6833 390.816 86.908 390.159 86.908V87.108C390.868 87.108 391.469 86.8634 391.958 86.3747L391.817 86.2333ZM390.159 86.908C389.502 86.908 388.94 86.6832 388.468 86.2317L388.33 86.3763C388.84 86.8635 389.451 87.108 390.159 87.108V86.908ZM388.47 86.2333C388.02 85.7833 387.795 85.233 387.795 84.576H387.595C387.595 85.2843 387.84 85.886 388.329 86.3747L388.47 86.2333ZM387.795 84.576C387.795 83.8967 388.021 83.3361 388.47 82.8867L388.329 82.7453C387.839 83.2346 387.595 83.8473 387.595 84.576H387.795ZM388.468 82.8883C388.94 82.4368 389.502 82.212 390.159 82.212V82.012C389.451 82.012 388.84 82.2565 388.33 82.7437L388.468 82.8883ZM390.159 82.212C390.816 82.212 391.367 82.4367 391.817 82.8867L391.958 82.7453C391.469 82.2566 390.868 82.012 390.159 82.012V82.212ZM391.817 82.8867C392.266 83.3361 392.491 83.8967 392.491 84.576H392.691C392.691 83.8473 392.447 83.2346 391.958 82.7453L391.817 82.8867ZM406.254 90.24H406.154L406.154 90.2443L406.254 90.24ZM400.174 92.192L400.252 92.2538L400.252 92.2538L400.174 92.192ZM399.722 106.656C399.722 107.149 399.581 107.501 399.316 107.733C399.048 107.966 398.636 108.092 398.062 108.092V108.292C398.661 108.292 399.129 108.162 399.448 107.883C399.769 107.603 399.922 107.187 399.922 106.656H399.722ZM398.062 108.092C397.465 108.092 397.037 107.966 396.758 107.732C396.483 107.5 396.338 107.148 396.338 106.656H396.138C396.138 107.188 396.297 107.604 396.629 107.884C396.959 108.162 397.442 108.292 398.062 108.292V108.092ZM396.338 106.656V93.408H396.138V106.656H396.338ZM396.338 93.408C396.338 91.6776 396.854 90.5011 397.86 89.8437L397.751 89.6763C396.667 90.3842 396.138 91.6397 396.138 93.408H396.338ZM397.86 89.8437C398.888 89.1727 400.074 88.836 401.422 88.836V88.636C400.039 88.636 398.814 88.982 397.751 89.6763L397.86 89.8437ZM401.422 88.836H405.07V88.636H401.422V88.836ZM405.07 88.836C405.442 88.836 405.705 88.9529 405.879 89.1739C406.057 89.3993 406.154 89.7491 406.154 90.24H406.354C406.354 89.7283 406.253 89.326 406.036 89.0501C405.816 88.7697 405.487 88.636 405.07 88.636V88.836ZM406.154 90.2443C406.175 90.7347 406.087 91.0824 405.911 91.3061C405.738 91.5258 405.465 91.644 405.07 91.644V91.844C405.506 91.844 405.847 91.7116 406.068 91.4299C406.287 91.1522 406.375 90.748 406.354 90.2357L406.154 90.2443ZM405.07 91.644H401.678V91.844H405.07V91.644ZM401.678 91.644C401.288 91.644 400.96 91.6818 400.697 91.7602C400.434 91.8386 400.229 91.9595 400.095 92.1302L400.252 92.2538C400.353 92.1258 400.516 92.0228 400.754 91.9518C400.992 91.8809 401.299 91.844 401.678 91.844V91.644ZM400.095 92.1302C399.842 92.4524 399.722 92.8931 399.722 93.44H399.922C399.922 92.9202 400.036 92.5289 400.252 92.2538L400.095 92.1302ZM399.722 93.44V106.656H399.922V93.44H399.722ZM422.624 106.784L422.682 106.865L422.682 106.865L422.624 106.784ZM410.56 106.784L410.495 106.861L410.499 106.864L410.56 106.784ZM409.376 105.184L409.283 105.223L409.284 105.224L409.376 105.184ZM410.56 89.952L410.501 89.8708L410.498 89.8731L410.56 89.952ZM412.192 89.056L412.227 89.1494L412.229 89.1486L412.192 89.056ZM420.928 89.024L420.895 89.1186L420.898 89.1195L420.928 89.024ZM422.656 89.824L422.713 89.7423L422.709 89.7398L422.656 89.824ZM423.872 91.328L423.781 91.3703L423.782 91.3727L423.872 91.328ZM420.32 92.384L420.238 92.4422L420.241 92.4465L420.32 92.384ZM412.96 92.384L412.88 92.3234L412.88 92.324L412.96 92.384ZM412.96 104.32L412.878 104.378L412.88 104.381L412.96 104.32ZM420.32 104.32L420.24 104.259L420.238 104.262L420.32 104.32ZM424.252 102.912C424.252 104.638 423.685 105.894 422.565 106.703L422.682 106.865C423.866 106.01 424.452 104.685 424.452 102.912H424.252ZM422.565 106.703C421.448 107.504 420.337 107.9 419.232 107.9V108.1C420.387 108.1 421.538 107.685 422.682 106.865L422.565 106.703ZM419.232 107.9H413.856V108.1H419.232V107.9ZM413.856 107.9C412.751 107.9 411.673 107.504 410.62 106.704L410.499 106.864C411.58 107.685 412.699 108.1 413.856 108.1V107.9ZM410.624 106.707C410.124 106.291 409.739 105.771 409.467 105.144L409.284 105.224C409.567 105.877 409.971 106.424 410.495 106.861L410.624 106.707ZM409.468 105.145C409.196 104.498 409.06 103.755 409.06 102.912H408.86C408.86 103.776 409 104.547 409.283 105.223L409.468 105.145ZM409.06 102.912V93.792H408.86V102.912H409.06ZM409.06 93.792C409.06 92.0855 409.585 90.8388 410.621 90.0308L410.498 89.8731C409.401 90.7292 408.86 92.0425 408.86 93.792H409.06ZM410.618 90.0332C411.145 89.6536 411.682 89.3593 412.227 89.1493L412.156 88.9627C411.592 89.1794 411.041 89.4824 410.501 89.8708L410.618 90.0332ZM412.229 89.1486C412.795 88.918 413.337 88.804 413.856 88.804V88.604C413.307 88.604 412.74 88.7246 412.154 88.9634L412.229 89.1486ZM413.856 88.804H419.232V88.604H413.856V88.804ZM419.232 88.804C419.73 88.804 420.284 88.9079 420.895 89.1185L420.96 88.9295C420.334 88.7135 419.757 88.604 419.232 88.604V88.804ZM420.898 89.1195C421.508 89.3089 422.076 89.5718 422.602 89.9082L422.709 89.7398C422.168 89.3935 421.584 89.1231 420.957 88.9285L420.898 89.1195ZM422.598 89.9056C423.094 90.257 423.489 90.744 423.781 91.3703L423.962 91.2857C423.657 90.632 423.241 90.1163 422.713 89.7424L422.598 89.9056ZM423.782 91.3727C424.094 91.9961 424.252 92.7375 424.252 93.6H424.452C424.452 92.7132 424.289 91.9399 423.961 91.2833L423.782 91.3727ZM424.252 93.6V95.2H424.452V93.6H424.252ZM424.252 95.2C424.252 95.6928 424.111 96.0452 423.846 96.2767C423.578 96.5104 423.166 96.636 422.592 96.636V96.836C423.19 96.836 423.658 96.7056 423.977 96.4273C424.299 96.1468 424.452 95.7312 424.452 95.2H424.252ZM422.592 96.636C422.017 96.636 421.605 96.5104 421.337 96.2767C421.072 96.0452 420.932 95.6928 420.932 95.2H420.732C420.732 95.7312 420.884 96.1468 421.206 96.4273C421.525 96.7056 421.993 96.836 422.592 96.836V96.636ZM420.932 95.2V93.824H420.732V95.2H420.932ZM420.932 93.824C420.932 93.2674 420.753 92.7655 420.398 92.3215L420.241 92.4465C420.569 92.8559 420.732 93.314 420.732 93.824H420.932ZM420.401 92.3259C420.055 91.8414 419.462 91.612 418.656 91.612V91.812C419.427 91.812 419.944 92.0306 420.238 92.4421L420.401 92.3259ZM418.656 91.612H414.656V91.812H418.656V91.612ZM414.656 91.612C413.848 91.612 413.247 91.8416 412.88 92.3234L413.039 92.4446C413.355 92.0304 413.884 91.812 414.656 91.812V91.612ZM412.88 92.324C412.547 92.768 412.38 93.269 412.38 93.824H412.58C412.58 93.3123 412.732 92.8534 413.04 92.444L412.88 92.324ZM412.38 93.824V102.88H412.58V93.824H412.38ZM412.38 102.88C412.38 103.414 412.547 103.915 412.878 104.378L413.041 104.262C412.732 103.829 412.58 103.37 412.58 102.88H412.38ZM412.88 104.381C413.247 104.862 413.848 105.092 414.656 105.092V104.892C413.884 104.892 413.355 104.674 413.039 104.259L412.88 104.381ZM414.656 105.092H418.656V104.892H414.656V105.092ZM418.656 105.092C419.462 105.092 420.055 104.863 420.401 104.378L420.238 104.262C419.944 104.673 419.427 104.892 418.656 104.892V105.092ZM420.399 104.381C420.752 103.917 420.932 103.416 420.932 102.88H420.732C420.732 103.368 420.569 103.827 420.24 104.259L420.399 104.381ZM420.932 102.88V101.408H420.732V102.88H420.932ZM420.932 101.408C420.932 100.927 421.072 100.582 421.336 100.356C421.604 100.127 422.017 100.004 422.592 100.004V99.804C421.993 99.804 421.525 99.9315 421.207 100.204C420.885 100.479 420.732 100.887 420.732 101.408H420.932ZM422.592 100.004C423.166 100.004 423.579 100.127 423.847 100.356C424.111 100.582 424.252 100.927 424.252 101.408H424.452C424.452 100.887 424.298 100.479 423.976 100.204C423.658 99.9315 423.19 99.804 422.592 99.804V100.004ZM424.252 101.408V102.912H424.452V101.408H424.252ZM443.31 105.184L443.219 105.143L443.219 105.143L443.31 105.184ZM442.03 106.784L441.971 106.703L441.723 106.884H442.03V106.784ZM442.062 106.784L442.118 106.867L442.387 106.684H442.062V106.784ZM440.366 107.68L440.399 107.774L440.402 107.773L440.366 107.68ZM431.758 107.68L431.721 107.773L431.725 107.775L431.758 107.68ZM430.062 106.784V106.684H429.737L430.006 106.867L430.062 106.784ZM430.094 106.784V106.884H430.4L430.153 106.703L430.094 106.784ZM428.814 105.184L428.723 105.225L428.723 105.225L428.814 105.184ZM432.334 104.224L432.422 104.176L432.417 104.169L432.334 104.224ZM439.758 104.224L439.846 104.272L439.687 104.153L439.758 104.224ZM439.726 104.256L439.643 104.201L439.796 104.327L439.726 104.256ZM443.658 102.912C443.658 103.754 443.511 104.497 443.219 105.143L443.401 105.225C443.706 104.549 443.858 103.777 443.858 102.912H443.658ZM443.219 105.143C442.927 105.789 442.511 106.309 441.971 106.703L442.089 106.865C442.658 106.449 443.096 105.901 443.401 105.225L443.219 105.143ZM442.03 106.884H442.062V106.684H442.03V106.884ZM442.006 106.701C441.478 107.06 440.92 107.355 440.329 107.587L440.402 107.773C441.007 107.536 441.579 107.234 442.118 106.867L442.006 106.701ZM440.332 107.586C439.744 107.796 439.179 107.9 438.638 107.9V108.1C439.205 108.1 439.793 107.991 440.399 107.774L440.332 107.586ZM438.638 107.9H433.486V108.1H438.638V107.9ZM433.486 107.9C432.966 107.9 432.401 107.796 431.79 107.585L431.725 107.775C432.352 107.991 432.939 108.1 433.486 108.1V107.9ZM431.794 107.587C431.204 107.355 430.645 107.06 430.118 106.701L430.006 106.867C430.545 107.234 431.117 107.536 431.721 107.773L431.794 107.587ZM430.062 106.884H430.094V106.684H430.062V106.884ZM430.153 106.703C429.613 106.309 429.197 105.789 428.905 105.143L428.723 105.225C429.028 105.901 429.465 106.449 430.035 106.865L430.153 106.703ZM428.905 105.143C428.613 104.497 428.466 103.754 428.466 102.912H428.266C428.266 103.777 428.417 104.549 428.723 105.225L428.905 105.143ZM428.466 102.912V90.08H428.266V102.912H428.466ZM428.466 90.08C428.466 89.5872 428.606 89.2348 428.872 89.0033C429.139 88.7696 429.551 88.644 430.126 88.644V88.444C429.527 88.444 429.059 88.5744 428.74 88.8527C428.419 89.1332 428.266 89.5488 428.266 90.08H428.466ZM430.126 88.644C430.7 88.644 431.112 88.7696 431.38 89.0033C431.645 89.2348 431.786 89.5872 431.786 90.08H431.986C431.986 89.5488 431.833 89.1332 431.512 88.8527C431.193 88.5744 430.725 88.444 430.126 88.444V88.644ZM431.786 90.08V102.656H431.986V90.08H431.786ZM431.786 102.656C431.786 103.271 431.94 103.813 432.251 104.279L432.417 104.169C432.13 103.739 431.986 103.236 431.986 102.656H431.786ZM432.246 104.272C432.549 104.83 433.171 105.092 434.062 105.092V104.892C433.204 104.892 432.674 104.642 432.422 104.176L432.246 104.272ZM434.062 105.092H438.062V104.892H434.062V105.092ZM438.062 105.092C438.933 105.092 439.543 104.83 439.846 104.272L439.67 104.176C439.417 104.642 438.897 104.892 438.062 104.892V105.092ZM439.687 104.153L439.655 104.185L439.796 104.327L439.828 104.295L439.687 104.153ZM439.809 104.311C440.16 103.785 440.338 103.233 440.338 102.656H440.138C440.138 103.189 439.974 103.703 439.643 104.201L439.809 104.311ZM440.338 102.656V90.08H440.138V102.656H440.338ZM440.338 90.08C440.338 89.5872 440.478 89.2348 440.744 89.0033C441.011 88.7696 441.423 88.644 441.998 88.644V88.444C441.399 88.444 440.931 88.5744 440.612 88.8527C440.291 89.1332 440.138 89.5488 440.138 90.08H440.338ZM441.998 88.644C442.572 88.644 442.984 88.7696 443.252 89.0033C443.517 89.2348 443.658 89.5872 443.658 90.08H443.858C443.858 89.5488 443.705 89.1332 443.384 88.8527C443.065 88.5744 442.597 88.444 441.998 88.444V88.644ZM443.658 90.08V102.912H443.858V90.08H443.658ZM447.868 86.304L447.797 86.3747L447.799 86.3763L447.868 86.304ZM447.868 82.816L447.799 82.7437L447.797 82.7453L447.868 82.816ZM451.356 82.816L451.427 82.7453L451.427 82.7453L451.356 82.816ZM451.288 106.656C451.288 107.149 451.147 107.501 450.882 107.733C450.614 107.966 450.202 108.092 449.628 108.092V108.292C450.227 108.292 450.695 108.162 451.014 107.883C451.335 107.603 451.488 107.187 451.488 106.656H451.288ZM449.628 108.092C449.043 108.092 448.622 107.966 448.349 107.732C448.079 107.5 447.936 107.148 447.936 106.656H447.736C447.736 107.188 447.892 107.604 448.219 107.884C448.543 108.162 449.019 108.292 449.628 108.292V108.092ZM447.936 106.656V90.144H447.736V106.656H447.936ZM447.936 90.144C447.936 89.6518 448.079 89.2996 448.349 89.0679C448.622 88.8338 449.043 88.708 449.628 88.708V88.508C449.019 88.508 448.543 88.6382 448.219 88.9161C447.892 89.1964 447.736 89.6122 447.736 90.144H447.936ZM449.628 88.708C450.202 88.708 450.614 88.8336 450.882 89.0673C451.147 89.2988 451.288 89.6512 451.288 90.144H451.488C451.488 89.6128 451.335 89.1972 451.014 88.9167C450.695 88.6384 450.227 88.508 449.628 88.508V88.708ZM451.288 90.144V106.656H451.488V90.144H451.288ZM451.96 84.576C451.96 85.233 451.735 85.7833 451.285 86.2333L451.427 86.3747C451.915 85.886 452.16 85.2843 452.16 84.576H451.96ZM451.285 86.2333C450.835 86.6833 450.285 86.908 449.628 86.908V87.108C450.336 87.108 450.938 86.8634 451.427 86.3747L451.285 86.2333ZM449.628 86.908C448.971 86.908 448.409 86.6832 447.937 86.2317L447.799 86.3763C448.308 86.8635 448.92 87.108 449.628 87.108V86.908ZM447.939 86.2333C447.489 85.7833 447.264 85.233 447.264 84.576H447.064C447.064 85.2843 447.309 85.886 447.797 86.3747L447.939 86.2333ZM447.264 84.576C447.264 83.8967 447.489 83.3361 447.939 82.8867L447.797 82.7453C447.308 83.2346 447.064 83.8473 447.064 84.576H447.264ZM447.937 82.8883C448.409 82.4368 448.971 82.212 449.628 82.212V82.012C448.92 82.012 448.308 82.2565 447.799 82.7437L447.937 82.8883ZM449.628 82.212C450.285 82.212 450.835 82.4367 451.285 82.8867L451.427 82.7453C450.938 82.2566 450.336 82.012 449.628 82.012V82.212ZM451.285 82.8867C451.735 83.3361 451.96 83.8967 451.96 84.576H452.16C452.16 83.8473 451.916 83.2346 451.427 82.7453L451.285 82.8867ZM460.027 91.744V91.644H459.927V91.744H460.027ZM460.379 104.672L460.457 104.61L460.457 104.61L460.379 104.672ZM463.899 106.592L463.799 106.588V106.592H463.899ZM459.739 107.84L459.708 107.935L459.711 107.936L459.739 107.84ZM458.011 107.04L458.063 106.955L457.911 106.861V107.04H458.011ZM458.011 107.072L457.956 107.156L458.111 107.257V107.072H458.011ZM456.443 91.744H456.543V91.644H456.443V91.744ZM453.979 90.24H453.878L453.879 90.2443L453.979 90.24ZM456.443 88.736V88.836H456.543V88.736H456.443ZM460.027 88.736H459.927V88.836H460.027V88.736ZM463.867 90.24L463.767 90.2357V90.24H463.867ZM459.927 91.744V103.392H460.127V91.744H459.927ZM459.927 103.392C459.927 103.959 460.046 104.411 460.3 104.734L460.457 104.61C460.241 104.336 460.127 103.934 460.127 103.392H459.927ZM460.3 104.734C460.434 104.904 460.639 105.025 460.902 105.104C461.165 105.182 461.493 105.22 461.883 105.22V105.02C461.504 105.02 461.197 104.983 460.959 104.912C460.721 104.841 460.558 104.738 460.457 104.61L460.3 104.734ZM461.883 105.22H462.715V105.02H461.883V105.22ZM462.715 105.22C463.111 105.22 463.384 105.336 463.557 105.551C463.732 105.769 463.819 106.108 463.799 106.588L463.998 106.596C464.02 106.094 463.932 105.698 463.712 105.425C463.49 105.149 463.15 105.02 462.715 105.02V105.22ZM463.799 106.592C463.799 107.083 463.701 107.433 463.524 107.658C463.35 107.879 463.087 107.996 462.715 107.996V108.196C463.132 108.196 463.46 108.062 463.681 107.782C463.898 107.506 463.999 107.104 463.999 106.592H463.799ZM462.715 107.996H461.659V108.196H462.715V107.996ZM461.659 107.996C460.984 107.996 460.354 107.912 459.766 107.744L459.711 107.936C460.318 108.11 460.967 108.196 461.659 108.196V107.996ZM459.769 107.745C459.18 107.555 458.611 107.292 458.063 106.955L457.958 107.125C458.519 107.471 459.103 107.741 459.708 107.935L459.769 107.745ZM457.911 107.04V107.072H458.111V107.04H457.911ZM458.065 106.988C457.059 106.331 456.543 105.154 456.543 103.424H456.343C456.343 105.192 456.872 106.448 457.956 107.156L458.065 106.988ZM456.543 103.424V91.744H456.343V103.424H456.543ZM456.443 91.644H455.195V91.844H456.443V91.644ZM455.195 91.644C454.834 91.644 454.572 91.5277 454.392 91.3051C454.209 91.0781 454.099 90.7268 454.078 90.2357L453.879 90.2443C453.9 90.7558 454.015 91.1566 454.237 91.4309C454.462 91.7096 454.787 91.844 455.195 91.844V91.644ZM454.079 90.24C454.079 89.7495 454.178 89.4002 454.36 89.1749C454.539 88.9536 454.811 88.836 455.195 88.836V88.636C454.767 88.636 454.431 88.7691 454.205 89.0491C453.982 89.3251 453.879 89.7278 453.879 90.24H454.079ZM455.195 88.836H456.443V88.636H455.195V88.836ZM456.543 88.736V85.312H456.343V88.736H456.543ZM456.543 85.312C456.543 84.8204 456.688 84.4683 456.963 84.2365C457.241 84.0019 457.67 83.876 458.266 83.876V83.676C457.647 83.676 457.164 83.8061 456.834 84.0835C456.501 84.3637 456.343 84.7796 456.343 85.312H456.543ZM458.266 83.876C458.841 83.876 459.253 84.0016 459.521 84.2353C459.786 84.4668 459.927 84.8192 459.927 85.312H460.127C460.127 84.7808 459.974 84.3652 459.652 84.0847C459.333 83.8064 458.865 83.676 458.266 83.676V83.876ZM459.927 85.312V88.736H460.127V85.312H459.927ZM460.027 88.836H462.683V88.636H460.027V88.836ZM462.683 88.836C463.078 88.836 463.351 88.9542 463.524 89.1739C463.7 89.3976 463.787 89.7453 463.767 90.2357L463.966 90.2443C463.988 89.732 463.9 89.3277 463.681 89.0501C463.459 88.7684 463.119 88.636 462.683 88.636V88.836ZM463.767 90.24C463.767 90.7309 463.669 91.0807 463.492 91.3061C463.318 91.5271 463.055 91.644 462.683 91.644V91.844C463.1 91.844 463.428 91.7103 463.649 91.4299C463.866 91.154 463.967 90.7517 463.967 90.24H463.767ZM462.683 91.644H460.027V91.844H462.683V91.644ZM476.566 90.24H476.466L476.466 90.2443L476.566 90.24ZM470.486 92.192L470.565 92.2538L470.565 92.2538L470.486 92.192ZM470.034 106.656C470.034 107.149 469.894 107.501 469.628 107.733C469.361 107.966 468.949 108.092 468.374 108.092V108.292C468.973 108.292 469.441 108.162 469.76 107.883C470.081 107.603 470.234 107.187 470.234 106.656H470.034ZM468.374 108.092C467.778 108.092 467.349 107.966 467.071 107.732C466.795 107.5 466.65 107.148 466.65 106.656H466.45C466.45 107.188 466.609 107.604 466.942 107.884C467.271 108.162 467.755 108.292 468.374 108.292V108.092ZM466.65 106.656V93.408H466.45V106.656H466.65ZM466.65 93.408C466.65 91.6776 467.166 90.5011 468.173 89.8437L468.064 89.6763C466.979 90.3842 466.45 91.6397 466.45 93.408H466.65ZM468.173 89.8437C469.2 89.1727 470.386 88.836 471.734 88.836V88.636C470.351 88.636 469.127 88.982 468.064 89.6763L468.173 89.8437ZM471.734 88.836H475.382V88.636H471.734V88.836ZM475.382 88.836C475.754 88.836 476.018 88.9529 476.192 89.1739C476.369 89.3993 476.466 89.7491 476.466 90.24H476.666C476.666 89.7283 476.566 89.326 476.349 89.0501C476.128 88.7697 475.8 88.636 475.382 88.636V88.836ZM476.466 90.2443C476.487 90.7347 476.4 91.0824 476.224 91.3061C476.051 91.5258 475.778 91.644 475.382 91.644V91.844C475.819 91.844 476.159 91.7116 476.381 91.4299C476.599 91.1522 476.688 90.748 476.666 90.2357L476.466 90.2443ZM475.382 91.644H471.99V91.844H475.382V91.644ZM471.99 91.644C471.601 91.644 471.273 91.6818 471.01 91.7602C470.747 91.8386 470.542 91.9595 470.408 92.1302L470.565 92.2538C470.665 92.1258 470.829 92.0228 471.067 91.9518C471.305 91.8809 471.612 91.844 471.99 91.844V91.644ZM470.408 92.1302C470.154 92.4524 470.034 92.8931 470.034 93.44H470.234C470.234 92.9202 470.349 92.5289 470.565 92.2538L470.408 92.1302ZM470.034 93.44V106.656H470.234V93.44H470.034ZM479.112 110.976H479.012L479.012 110.98L479.112 110.976ZM483.176 108.8L483.265 108.847L483.27 108.835L483.176 108.8ZM483.624 107.616L483.718 107.651L483.719 107.646L483.624 107.616ZM483.784 107.104L483.879 107.134L483.89 107.101L483.877 107.068L483.784 107.104ZM477.544 90.752L477.637 90.7163L477.444 90.752H477.544ZM477.544 90.784L477.449 90.8156L477.644 90.784H477.544ZM477.64 89.472L477.558 89.4143L477.556 89.4177L477.64 89.472ZM478.792 88.672L478.765 88.5755L478.76 88.5771L478.792 88.672ZM480.872 89.6L480.774 89.6202L480.776 89.6289L480.779 89.6372L480.872 89.6ZM483.4 95.904L483.307 95.9412L483.307 95.9418L483.4 95.904ZM485.544 101.152L485.451 101.19L485.559 101.453L485.64 101.181L485.544 101.152ZM488.968 89.664L489.064 89.6926L489.065 89.6883L488.968 89.664ZM491.144 88.672L491.172 88.576L491.171 88.5756L491.144 88.672ZM492.232 89.408L492.147 89.461L492.15 89.4647L492.232 89.408ZM492.392 90.624L492.488 90.6522L492.488 90.6503L492.392 90.624ZM489.448 100.48L489.352 100.451L489.352 100.452L489.448 100.48ZM486.536 110.304L486.628 110.346L486.632 110.332L486.536 110.304ZM486.024 111.008L485.953 110.937L485.947 110.944L486.024 111.008ZM485.16 111.712L485.109 111.626L485.106 111.628L485.16 111.712ZM483.816 112.256L483.793 112.159L483.789 112.16L483.816 112.256ZM480.296 112.38C479.947 112.38 479.694 112.264 479.519 112.042C479.34 111.815 479.233 111.463 479.212 110.972L479.012 110.98C479.034 111.491 479.146 111.892 479.361 112.166C479.581 112.445 479.898 112.58 480.296 112.58V112.38ZM479.212 110.976C479.212 110.485 479.309 110.135 479.487 109.91C479.66 109.689 479.924 109.572 480.296 109.572V109.372C479.879 109.372 479.55 109.506 479.329 109.786C479.112 110.062 479.012 110.464 479.012 110.976H479.212ZM480.296 109.572H481.704V109.372H480.296V109.572ZM481.704 109.572C482.468 109.572 483.005 109.342 483.265 108.846L483.087 108.754C482.878 109.154 482.433 109.372 481.704 109.372V109.572ZM483.27 108.835L483.718 107.651L483.53 107.581L483.082 108.765L483.27 108.835ZM483.719 107.646L483.879 107.134L483.689 107.074L483.529 107.586L483.719 107.646ZM483.877 107.068L477.637 90.7163L477.451 90.7877L483.691 107.14L483.877 107.068ZM477.444 90.752V90.784H477.644V90.752H477.444ZM477.639 90.7524C477.475 90.2613 477.51 89.8572 477.724 89.5263L477.556 89.4177C477.301 89.8121 477.271 90.2827 477.449 90.8156L477.639 90.7524ZM477.722 89.5297C477.963 89.1879 478.327 88.9323 478.824 88.7669L478.76 88.5771C478.233 88.7531 477.829 89.0308 477.558 89.4143L477.722 89.5297ZM478.819 88.7684C479.199 88.6627 479.499 88.612 479.72 88.612V88.412C479.472 88.412 479.153 88.468 478.765 88.5756L478.819 88.7684ZM479.72 88.612C480.008 88.612 480.233 88.6959 480.403 88.8567C480.576 89.0193 480.702 89.2698 480.774 89.6202L480.97 89.5798C480.893 89.2049 480.752 88.9114 480.541 88.7113C480.327 88.5095 480.05 88.412 479.72 88.412V88.612ZM480.779 89.6372L483.307 95.9412L483.493 95.8668L480.965 89.5628L480.779 89.6372ZM483.307 95.9418L485.451 101.19L485.637 101.114L483.493 95.8662L483.307 95.9418ZM485.64 101.181L489.064 89.6926L488.872 89.6354L485.448 101.123L485.64 101.181ZM489.065 89.6883C489.158 89.3176 489.309 89.0505 489.513 88.8759C489.716 88.7023 489.979 88.612 490.312 88.612V88.412C489.941 88.412 489.628 88.5137 489.383 88.7241C489.139 88.9335 488.97 89.2424 488.871 89.6397L489.065 89.6883ZM490.312 88.612C490.468 88.612 490.733 88.6618 491.117 88.7684L491.171 88.5756C490.787 88.4689 490.498 88.412 490.312 88.412V88.612ZM491.116 88.768C491.612 88.9127 491.951 89.1465 492.147 89.461L492.317 89.355C492.087 88.9869 491.7 88.7299 491.172 88.576L491.116 88.768ZM492.15 89.4647C492.365 89.7774 492.417 90.1512 492.296 90.5977L492.488 90.6503C492.623 90.1581 492.569 89.7212 492.314 89.3513L492.15 89.4647ZM492.296 90.5958C491.336 93.8595 490.355 97.1446 489.352 100.451L489.544 100.509C490.546 97.2021 491.528 93.9165 492.488 90.6522L492.296 90.5958ZM489.352 100.452C488.371 103.758 487.4 107.033 486.44 110.276L486.632 110.332C487.592 107.09 488.563 103.815 489.544 100.508L489.352 100.452ZM486.445 110.263C486.344 110.484 486.182 110.709 485.953 110.937L486.095 111.079C486.336 110.838 486.514 110.594 486.627 110.345L486.445 110.263ZM485.947 110.944C485.743 111.189 485.465 111.417 485.109 111.626L485.211 111.798C485.581 111.58 485.878 111.339 486.101 111.072L485.947 110.944ZM485.106 111.628C484.755 111.855 484.318 112.033 483.793 112.159L483.839 112.353C484.381 112.223 484.84 112.038 485.214 111.796L485.106 111.628ZM483.789 112.16C483.266 112.306 482.657 112.38 481.96 112.38V112.58C482.671 112.58 483.299 112.505 483.843 112.352L483.789 112.16ZM481.96 112.38H480.296V112.58H481.96V112.38Z" fill="black" mask="url(#path-66-outside-1_795_3)"/>
</g>
<defs>
<filter id="filter0_bf_795_3" x="315.5" y="55" width="227" height="84" filterUnits="userSpaceOnUse" color-interpolation-filters="sRGB">
<feFlood flood-opacity="0" result="BackgroundImageFix"/>
<feGaussianBlur in="BackgroundImageFix" stdDeviation="1.5"/>
<feComposite in2="SourceAlpha" operator="in" result="effect1_backgroundBlur_795_3"/>
<feBlend mode="normal" in="SourceGraphic" in2="effect1_backgroundBlur_795_3" result="shape"/>
<feGaussianBlur stdDeviation="0.5" result="effect2_foregroundBlur_795_3"/>
</filter>
<filter id="filter1_d_795_3" x="362.684" y="82.1121" width="133.9" height="38.3679" filterUnits="userSpaceOnUse" color-interpolation-filters="sRGB">
<feFlood flood-opacity="0" result="BackgroundImageFix"/>
<feColorMatrix in="SourceAlpha" type="matrix" values="0 0 0 0 0 0 0 0 0 0 0 0 0 0 0 0 0 0 127 0" result="hardAlpha"/>
<feOffset dy="4"/>
<feGaussianBlur stdDeviation="2"/>
<feComposite in2="hardAlpha" operator="out"/>
<feColorMatrix type="matrix" values="0 0 0 0 0 0 0 0 0 0 0 0 0 0 0 0 0 0 0.25 0"/>
<feBlend mode="normal" in2="BackgroundImageFix" result="effect1_dropShadow_795_3"/>
<feBlend mode="normal" in="SourceGraphic" in2="effect1_dropShadow_795_3" result="shape"/>
</filter>
<linearGradient id="paint0_linear_795_3" x1="343" y1="44" x2="343" y2="58" gradientUnits="userSpaceOnUse">
<stop stop-color="#4E4E4E"/>
<stop offset="0.105" stop-color="#FEFEFE"/>
<stop offset="0.45" stop-color="#808080"/>
<stop offset="0.72" stop-color="#A6A5A5"/>
</linearGradient>
<linearGradient id="paint1_linear_795_3" x1="368" y1="44" x2="368" y2="58" gradientUnits="userSpaceOnUse">
<stop stop-color="#4E4E4E"/>
<stop offset="0.105" stop-color="#FEFEFE"/>
<stop offset="0.45" stop-color="#808080"/>
<stop offset="0.72" stop-color="#A6A5A5"/>
</linearGradient>
<linearGradient id="paint2_linear_795_3" x1="418" y1="44" x2="418" y2="58" gradientUnits="userSpaceOnUse">
<stop stop-color="#4E4E4E"/>
<stop offset="0.105" stop-color="#FEFEFE"/>
<stop offset="0.45" stop-color="#808080"/>
<stop offset="0.72" stop-color="#A6A5A5"/>
</linearGradient>
<linearGradient id="paint3_linear_795_3" x1="393" y1="44" x2="393" y2="58" gradientUnits="userSpaceOnUse">
<stop stop-color="#4E4E4E"/>
<stop offset="0.105" stop-color="#FEFEFE"/>
<stop offset="0.45" stop-color="#808080"/>
<stop offset="0.72" stop-color="#A6A5A5"/>
</linearGradient>
<linearGradient id="paint4_linear_795_3" x1="443" y1="44" x2="443" y2="58" gradientUnits="userSpaceOnUse">
<stop stop-color="#4E4E4E"/>
<stop offset="0.105" stop-color="#FEFEFE"/>
<stop offset="0.45" stop-color="#808080"/>
<stop offset="0.72" stop-color="#A6A5A5"/>
</linearGradient>
<linearGradient id="paint5_linear_795_3" x1="468" y1="44" x2="468" y2="58" gradientUnits="userSpaceOnUse">
<stop stop-color="#4E4E4E"/>
<stop offset="0.105" stop-color="#FEFEFE"/>
<stop offset="0.45" stop-color="#808080"/>
<stop offset="0.72" stop-color="#A6A5A5"/>
</linearGradient>
<linearGradient id="paint6_linear_795_3" x1="518" y1="44" x2="518" y2="58" gradientUnits="userSpaceOnUse">
<stop stop-color="#4E4E4E"/>
<stop offset="0.105" stop-color="#FEFEFE"/>
<stop offset="0.45" stop-color="#808080"/>
<stop offset="0.72" stop-color="#A6A5A5"/>
</linearGradient>
<linearGradient id="paint7_linear_795_3" x1="493" y1="44" x2="493" y2="58" gradientUnits="userSpaceOnUse">
<stop stop-color="#4E4E4E"/>
<stop offset="0.105" stop-color="#FEFEFE"/>
<stop offset="0.45" stop-color="#808080"/>
<stop offset="0.72" stop-color="#A6A5A5"/>
</linearGradient>
<linearGradient id="paint8_linear_795_3" x1="343" y1="136" x2="343" y2="150" gradientUnits="userSpaceOnUse">
<stop offset="0.28" stop-color="#A6A5A5"/>
<stop offset="0.55" stop-color="#808080"/>
<stop offset="0.895" stop-color="#FEFEFE"/>
<stop offset="1" stop-color="#4E4E4E"/>
</linearGradient>
<linearGradient id="paint9_linear_795_3" x1="368" y1="136" x2="368" y2="150" gradientUnits="userSpaceOnUse">
<stop offset="0.28" stop-color="#A6A5A5"/>
<stop offset="0.55" stop-color="#808080"/>
<stop offset="0.895" stop-color="#FEFEFE"/>
<stop offset="1" stop-color="#4E4E4E"/>
</linearGradient>
<linearGradient id="paint10_linear_795_3" x1="418" y1="136" x2="418" y2="150" gradientUnits="userSpaceOnUse">
<stop offset="0.28" stop-color="#A6A5A5"/>
<stop offset="0.55" stop-color="#808080"/>
<stop offset="0.895" stop-color="#FEFEFE"/>
<stop offset="1" stop-color="#4E4E4E"/>
</linearGradient>
<linearGradient id="paint11_linear_795_3" x1="393" y1="136" x2="393" y2="150" gradientUnits="userSpaceOnUse">
<stop offset="0.28" stop-color="#A6A5A5"/>
<stop offset="0.55" stop-color="#808080"/>
<stop offset="0.895" stop-color="#FEFEFE"/>
<stop offset="1" stop-color="#4E4E4E"/>
</linearGradient>
<linearGradient id="paint12_linear_795_3" x1="443" y1="136" x2="443" y2="150" gradientUnits="userSpaceOnUse">
<stop offset="0.28" stop-color="#A6A5A5"/>
<stop offset="0.55" stop-color="#808080"/>
<stop offset="0.895" stop-color="#FEFEFE"/>
<stop offset="1" stop-color="#4E4E4E"/>
</linearGradient>
<linearGradient id="paint13_linear_795_3" x1="468" y1="136" x2="468" y2="150" gradientUnits="userSpaceOnUse">
<stop offset="0.28" stop-color="#A6A5A5"/>
<stop offset="0.55" stop-color="#808080"/>
<stop offset="0.895" stop-color="#FEFEFE"/>
<stop offset="1" stop-color="#4E4E4E"/>
</linearGradient>
<linearGradient id="paint14_linear_795_3" x1="518" y1="136" x2="518" y2="150" gradientUnits="userSpaceOnUse">
<stop offset="0.28" stop-color="#A6A5A5"/>
<stop offset="0.55" stop-color="#808080"/>
<stop offset="0.895" stop-color="#FEFEFE"/>
<stop offset="1" stop-color="#4E4E4E"/>
</linearGradient>
<linearGradient id="paint15_linear_795_3" x1="493" y1="136" x2="493" y2="150" gradientUnits="userSpaceOnUse">
<stop offset="0.28" stop-color="#A6A5A5"/>
<stop offset="0.55" stop-color="#808080"/>
<stop offset="0.895" stop-color="#FEFEFE"/>
<stop offset="1" stop-color="#4E4E4E"/>
</linearGradient>
<radialGradient id="paint16_radial_795_3" cx="0" cy="0" r="1" gradientUnits="userSpaceOnUse" gradientTransform="translate(545 21) rotate(90) scale(5.5)">
<stop stop-color="#BDBDBD"/>
<stop offset="0.945" stop-color="#FFFDFD"/>
</radialGradient>
<radialGradient id="paint17_radial_795_3" cx="0" cy="0" r="1" gradientUnits="userSpaceOnUse" gradientTransform="translate(393.454 19.4545) rotate(90) scale(5)">
<stop stop-color="#BDBDBD"/>
<stop offset="0.945" stop-color="#FFFDFD"/>
</radialGradient>
<radialGradient id="paint18_radial_795_3" cx="0" cy="0" r="1" gradientUnits="userSpaceOnUse" gradientTransform="translate(468 176) rotate(90) scale(5)">
<stop stop-color="#BDBDBD"/>
<stop offset="0.945" stop-color="#FFFDFD"/>
</radialGradient>
<radialGradient id="paint19_radial_795_3" cx="0" cy="0" r="1" gradientUnits="userSpaceOnUse" gradientTransform="translate(443 198) rotate(90) scale(5)">
<stop stop-color="#BDBDBD"/>
<stop offset="0.945" stop-color="#FFFDFD"/>
</radialGradient>
<radialGradient id="paint20_radial_795_3" cx="0" cy="0" r="1" gradientUnits="userSpaceOnUse" gradientTransform="translate(393 230) rotate(90) scale(5)">
<stop stop-color="#BDBDBD"/>
<stop offset="0.945" stop-color="#FFFDFD"/>
</radialGradient>
<radialGradient id="paint21_radial_795_3" cx="0" cy="0" r="1" gradientUnits="userSpaceOnUse" gradientTransform="translate(431.208 95.96) rotate(86.8369) scale(40.021 110.644)">
<stop stop-color="#595959"/>
<stop offset="0.925" stop-color="#1D1A1A"/>
</radialGradient>
<linearGradient id="paint22_linear_795_3" x1="397.522" y1="70.3487" x2="504.91" y2="70.4048" gradientUnits="userSpaceOnUse">
<stop stop-color="#B6B2B2"/>
<stop offset="0.118247" stop-color="#ADA9A9"/>
<stop offset="0.24" stop-color="#C1BEBE"/>
<stop offset="0.355" stop-color="#9B9A9A"/>
<stop offset="0.517212" stop-color="#999999"/>
<stop offset="0.585" stop-color="#8A8A8A"/>
<stop offset="0.705" stop-color="#B0B0B0"/>
<stop offset="0.945" stop-color="#6F6F6F"/>
</linearGradient>
</defs>
</svg>
